<svg id="Layer_1" data-name="Layer 1" xmlns="http://www.w3.org/2000/svg" viewBox="0 0 206.35 87.75"><defs><style>.cls-1{fill:none;stroke:#008040;stroke-linecap:round;stroke-linejoin:round;stroke-width:1.25px;}</style></defs><title>thejunewedding-finally-corner-bottom-left</title><path class="cls-1" d="M0,5.46C11.67,17.13,25.77,17.13,39.38,23S55.52,38.47,54.93,44.35c-1,9.72-12.64,8.75-11.67,0S56.88,30.74,66.6,35.6s27,15.17,38.89,8.75c12.64-6.81,15.56-21.39,11.67-27.22s-16-3-18.47,15.56c-1.94,14.58,7.78,27.22,22.36,34s35,8.75,43.75-1,0-20.42-6.81-15.56-5.83,17.5,8.75,22.36S190.08,80,198.84,87.74c0,0-18.26-12.9-10.57-34.89"/><path class="cls-1" d="M146.33,89.57s-9.72-8.26-30.14-9.24-28.88,4.38-42,.49C65,78.09,58.59,64.41,61.74,56c2.92-7.78,15.28-6.64,17.5,7.78,1.94,12.64-6.81,19.93-15.56,25.77"/><path class="cls-1" d="M25.07,89.57s-7.08-9.24.7-24.79C32.57,51.16,49.1,53.1,50.07,61.86S41.32,74.5,30.63,73.52,8.26,66.72,6.32,54.08,9.24,28.8,17,26.85s9.72,6.81,4.86,11.67S6.81,43.38,0,39.49"/><path class="cls-1" d="M22.44,17.42c10.94,2.91,16.94,14.29,7.21,29.85"/><path class="cls-1" d="M116.19,80.33c-12.64,0-23.34-15.56-24.31-24.31"/><path class="cls-1" d="M26,52.26s-.18-4.48,3.85-5C30.33,51.28,26,52.26,26,52.26Z"/><path class="cls-1" d="M35.42,48.21S32,45.27,34.4,42C37.7,44.35,35.42,48.21,35.42,48.21Z"/><path class="cls-1" d="M27.32,35.89s1.61-4.18,5.52-3.07C31.72,36.72,27.32,35.89,27.32,35.89Z"/><path class="cls-1" d="M39.47,38s-4.37-1-3.84-5C39.66,33.53,39.47,38,39.47,38Z"/><path class="cls-1" d="M40,29s-4.34,1.11-5.7-2.72C38.12,24.95,40,29,40,29Z"/><path class="cls-1" d="M25.15,42.76s2.35-3.82,6-2C29.32,44.38,25.15,42.76,25.15,42.76Z"/><path class="cls-1" d="M91.32,50.56s3.13,3.21.49,6.29C88.73,54.22,91.32,50.56,91.32,50.56Z"/><path class="cls-1" d="M87.31,59.64s4.48-.09,4.93,3.95C88.2,64,87.31,59.64,87.31,59.64Z"/><path class="cls-1" d="M101.57,63.37s1.6,4.19-2,6C97.74,65.7,101.57,63.37,101.57,63.37Z"/><path class="cls-1" d="M91.12,69.93s3.91-2.19,6.21,1.15C94,73.38,91.12,69.93,91.12,69.93Z"/><path class="cls-1" d="M106.67,69.08s1.08,4.35-2.75,5.68C102.59,70.93,106.67,69.08,106.67,69.08Z"/><path class="cls-1" d="M98.59,56.81s.81,4.41-3.1,5.5C94.4,58.4,98.59,56.81,98.59,56.81Z"/><path class="cls-1" d="M191.36,47.34s.82,4.41-3.09,5.5C187.17,48.94,191.36,47.34,191.36,47.34Z"/><path class="cls-1" d="M183,52.66s3.77,2.42,1.9,6C181.27,56.8,183,52.66,183,52.66Z"/><path class="cls-1" d="M192.76,63.69s-1,4.37-5,3.83C188.28,63.5,192.76,63.69,192.76,63.69Z"/><path class="cls-1" d="M180.42,63.33s4.47.35,4.52,4.41C180.88,67.79,180.42,63.33,180.42,63.33Z"/><path class="cls-1" d="M193.25,70.56S193,75,188.93,75.17C188.8,71.11,193.25,70.56,193.25,70.56Z"/><path class="cls-1" d="M181.46,72.42s4.37-1,5.64,2.84C183.25,76.53,181.46,72.42,181.46,72.42Z"/><path class="cls-1" d="M193.92,56.58s-1.78,4.11-5.64,2.85C189.55,55.57,193.92,56.58,193.92,56.58Z"/></svg>