<svg id="Layer_1" data-name="Layer 1" xmlns="http://www.w3.org/2000/svg" viewBox="0 0 206.35 87.75"><defs><style>.cls-1{fill:none;stroke:#008040;stroke-linecap:round;stroke-linejoin:round;stroke-width:1.25px;}</style></defs><title>thejunewedding-finally-corner-bottom-right</title><path class="cls-1" d="M206.35,5.46C194.68,17.13,180.58,17.13,167,23s-16.15,15.51-15.56,21.39c1,9.72,12.64,8.75,11.67,0s-13.61-13.61-23.34-8.75-27,15.17-38.89,8.75C88.22,37.55,85.3,23,89.19,17.13s16-3,18.47,15.56c1.94,14.58-7.78,27.22-22.36,34s-35,8.75-43.75-1,0-20.42,6.81-15.56,5.83,17.5-8.75,22.36S16.27,80,7.51,87.74c0,0,18.26-12.9,10.57-34.89"/><path class="cls-1" d="M60,89.57s9.72-8.26,30.14-9.24,28.88,4.38,42,.49c9.18-2.73,15.62-16.4,12.47-24.79-2.92-7.78-15.28-6.64-17.5,7.78-1.94,12.64,6.81,19.93,15.56,25.77"/><path class="cls-1" d="M181.28,89.57s7.08-9.24-.7-24.79c-6.81-13.61-23.34-11.67-24.31-2.92S165,74.5,175.72,73.52,198.09,66.72,200,54.08s-2.92-25.28-10.7-27.22-9.72,6.81-4.86,11.67,15.07,4.86,21.88,1"/><path class="cls-1" d="M183.91,17.42C173,20.33,167,31.71,176.69,47.27"/><path class="cls-1" d="M90.16,80.33c12.64,0,23.34-15.56,24.31-24.31"/><path class="cls-1" d="M180.39,52.26s.18-4.48-3.85-5C176,51.28,180.39,52.26,180.39,52.26Z"/><path class="cls-1" d="M170.93,48.21s3.39-2.94,1-6.23C168.65,44.35,170.93,48.21,170.93,48.21Z"/><path class="cls-1" d="M179,35.89s-1.61-4.18-5.52-3.07C174.63,36.72,179,35.89,179,35.89Z"/><path class="cls-1" d="M166.88,38s4.37-1,3.84-5C166.69,33.53,166.88,38,166.88,38Z"/><path class="cls-1" d="M166.36,29s4.34,1.11,5.7-2.72C168.23,24.95,166.36,29,166.36,29Z"/><path class="cls-1" d="M181.2,42.76s-2.35-3.82-6-2C177,44.38,181.2,42.76,181.2,42.76Z"/><path class="cls-1" d="M115,50.56s-3.13,3.21-.49,6.29C117.62,54.22,115,50.56,115,50.56Z"/><path class="cls-1" d="M119,59.64s-4.48-.09-4.93,3.95C118.15,64,119,59.64,119,59.64Z"/><path class="cls-1" d="M104.78,63.37s-1.6,4.19,2,6C108.61,65.7,104.78,63.37,104.78,63.37Z"/><path class="cls-1" d="M115.23,69.93s-3.91-2.19-6.21,1.15C112.36,73.38,115.23,69.93,115.23,69.93Z"/><path class="cls-1" d="M99.68,69.08s-1.08,4.35,2.75,5.68C103.77,70.93,99.68,69.08,99.68,69.08Z"/><path class="cls-1" d="M107.76,56.81s-.81,4.41,3.1,5.5C112,58.4,107.76,56.81,107.76,56.81Z"/><path class="cls-1" d="M15,47.34s-.82,4.41,3.09,5.5C19.18,48.94,15,47.34,15,47.34Z"/><path class="cls-1" d="M23.38,52.66s-3.77,2.42-1.9,6C25.08,56.8,23.38,52.66,23.38,52.66Z"/><path class="cls-1" d="M13.59,63.69s1,4.37,5,3.83C18.07,63.5,13.59,63.69,13.59,63.69Z"/><path class="cls-1" d="M25.93,63.33s-4.47.35-4.52,4.41C25.47,67.79,25.93,63.33,25.93,63.33Z"/><path class="cls-1" d="M13.1,70.56s.26,4.48,4.31,4.61C17.55,71.11,13.1,70.56,13.1,70.56Z"/><path class="cls-1" d="M24.89,72.42s-4.37-1-5.64,2.84C23.1,76.53,24.89,72.42,24.89,72.42Z"/><path class="cls-1" d="M12.43,56.58s1.78,4.11,5.64,2.85C16.8,55.57,12.43,56.58,12.43,56.58Z"/></svg>