<svg id="Layer_1" data-name="Layer 1" xmlns="http://www.w3.org/2000/svg" viewBox="0 0 206.35 87.75"><defs><style>.cls-1{fill:none;stroke:#008040;stroke-linecap:round;stroke-linejoin:round;stroke-width:1.25px;}</style></defs><title>thejunewedding-finally-corner-top-right</title><path class="cls-1" d="M206.35,82.5C194.68,70.83,180.58,70.83,167,65s-16.15-15.51-15.56-21.39c1-9.72,12.64-8.75,11.67,0s-13.61,13.61-23.34,8.75-27-15.17-38.89-8.75C88.22,50.41,85.3,65,89.19,70.83s16,3,18.47-15.56c1.94-14.58-7.78-27.22-22.36-34s-35-8.75-43.75,1,0,20.42,6.81,15.56,5.83-17.5-8.75-22.36S16.27,8,7.51.22c0,0,18.26,12.9,10.57,34.89"/><path class="cls-1" d="M60-1.61s9.72,8.26,30.14,9.24,28.88-4.38,42-.49c9.18,2.73,15.62,16.4,12.47,24.79-2.92,7.78-15.28,6.64-17.5-7.78-1.94-12.64,6.81-19.93,15.56-25.77"/><path class="cls-1" d="M181.28-1.61s7.08,9.24-.7,24.79c-6.81,13.61-23.34,11.67-24.31,2.92S165,13.46,175.72,14.44,198.09,21.24,200,33.88s-2.92,25.28-10.7,27.22-9.72-6.81-4.86-11.67,15.07-4.86,21.88-1"/><path class="cls-1" d="M183.91,70.54C173,67.63,167,56.25,176.69,40.69"/><path class="cls-1" d="M90.16,7.63c12.64,0,23.34,15.56,24.31,24.31"/><path class="cls-1" d="M180.39,35.7s.18,4.48-3.85,5C176,36.68,180.39,35.7,180.39,35.7Z"/><path class="cls-1" d="M170.93,39.75s3.39,2.94,1,6.23C168.65,43.61,170.93,39.75,170.93,39.75Z"/><path class="cls-1" d="M179,52.07s-1.61,4.18-5.52,3.07C174.63,51.24,179,52.07,179,52.07Z"/><path class="cls-1" d="M166.88,50s4.37,1,3.84,5C166.69,54.43,166.88,50,166.88,50Z"/><path class="cls-1" d="M166.36,58.94s4.34-1.11,5.7,2.72C168.23,63,166.36,58.94,166.36,58.94Z"/><path class="cls-1" d="M181.2,45.2s-2.35,3.82-6,2C177,43.58,181.2,45.2,181.2,45.2Z"/><path class="cls-1" d="M115,37.4s-3.13-3.21-.49-6.29C117.62,33.74,115,37.4,115,37.4Z"/><path class="cls-1" d="M119,28.32s-4.48.09-4.93-3.95C118.15,23.93,119,28.32,119,28.32Z"/><path class="cls-1" d="M104.78,24.59s-1.6-4.19,2-6C108.61,22.26,104.78,24.59,104.78,24.59Z"/><path class="cls-1" d="M115.23,18s-3.91,2.19-6.21-1.15C112.36,14.58,115.23,18,115.23,18Z"/><path class="cls-1" d="M99.68,18.88s-1.08-4.35,2.75-5.68C103.77,17,99.68,18.88,99.68,18.88Z"/><path class="cls-1" d="M107.76,31.15s-.81-4.41,3.1-5.5C112,29.56,107.76,31.15,107.76,31.15Z"/><path class="cls-1" d="M15,40.62s-.82-4.41,3.09-5.5C19.18,39,15,40.62,15,40.62Z"/><path class="cls-1" d="M23.38,35.3s-3.77-2.42-1.9-6C25.08,31.16,23.38,35.3,23.38,35.3Z"/><path class="cls-1" d="M13.59,24.27s1-4.37,5-3.83C18.07,24.46,13.59,24.27,13.59,24.27Z"/><path class="cls-1" d="M25.93,24.63s-4.47-.35-4.52-4.41C25.47,20.17,25.93,24.63,25.93,24.63Z"/><path class="cls-1" d="M13.1,17.4s.26-4.48,4.31-4.61C17.55,16.85,13.1,17.4,13.1,17.4Z"/><path class="cls-1" d="M24.89,15.54s-4.37,1-5.64-2.84C23.1,11.43,24.89,15.54,24.89,15.54Z"/><path class="cls-1" d="M12.43,31.38s1.78-4.11,5.64-2.85C16.8,32.39,12.43,31.38,12.43,31.38Z"/></svg>