<svg id="Layer_1" data-name="Layer 1" xmlns="http://www.w3.org/2000/svg" viewBox="0 0 206.35 208.19"><defs><style>.cls-1{fill:none;stroke:#fff;stroke-linecap:round;stroke-linejoin:round;stroke-width:1.25px;}</style></defs><title>thejunewedding-finally-white</title><path class="cls-1" d="M0,161.35S15.07,155.2,24.79,163a26,26,0,0,1,9.72,24.31c-1.45,8.68-11.67,8.75-12.64,0-1.07-9.66,6.81-18.47,17.5-20.42s19.45,4.86,21.39,12.64-5.83,12.64-9.72,5.83c-5-8.69,8.75-32.09,20.42-40.84s33.06-20.42,83.62-7.78"/><path class="cls-1" d="M65.63,208.19a59.79,59.79,0,0,0,19.45-14.1c4.6-5.11,5.83-13.61,1-16.53s-9.72,4.86-2.92,11.67,18.47,4.86,27.22,0,17.69-12.63,18.47-24.31c1-14.58-9.72-15.56-11.67-9.72s2.92,19.45,15.56,19.45,20.42-5.83,33.06-8.75,21.39,1.94,23.34,11.67-4.86,16.53-12.64,16.53-6.81-11.67,2.92-14.58,31.11,5.35,26.25,28.68"/><path class="cls-1" d="M140.5,143.54c16.53,3.89,28.2,17.5,54.45,5.83"/><path class="cls-1" d="M118.38,131.21s17.26-4.21,22.12-17.82"/><path class="cls-1" d="M86.16,191.53c16.42,9.37,34.87,7.26,45.73,2"/><path class="cls-1" d="M39.38,166.87c-14.78,1.85-28.85,13-23.55,32.47"/><path class="cls-1" d="M0,82.28c11.67-11.67,25.77-11.67,39.38-17.5S55.52,49.27,54.93,43.39c-1-9.72-12.64-8.75-11.67,0S56.88,57,66.6,52.14s27-15.17,38.89-8.75c12.64,6.81,15.56,21.39,11.67,27.22s-16,3-18.47-15.56c-1.94-14.58,7.78-27.22,22.36-34s35-8.75,43.75,1,0,20.42-6.81,15.56-5.83-17.5,8.75-22.36S190.08,7.78,198.84,0c0,0-18.26,12.9-10.57,34.89"/><path class="cls-1" d="M146.33-1.82s-9.72,8.26-30.14,9.24S87.31,3,74.21,6.93C65,9.65,58.59,23.33,61.74,31.72c2.92,7.78,15.28,6.64,17.5-7.78C81.19,11.3,72.44,4,63.69-1.82"/><path class="cls-1" d="M25.07-1.82S18,7.41,25.77,23c6.81,13.61,23.34,11.67,24.31,2.92S41.32,13.25,30.63,14.22,8.26,21,6.32,33.67,9.24,58.95,17,60.89s9.72-6.81,4.86-11.67S6.81,44.36,0,48.25"/><path class="cls-1" d="M22.44,70.32C33.38,67.41,39.38,56,29.66,40.47"/><path class="cls-1" d="M116.19,7.41C103.55,7.41,92.85,23,91.88,31.72"/><path class="cls-1" d="M173,165.06c-15,0-19.85,17.36-14,29"/><path class="cls-1" d="M142.16,107.07s-3.64,2.61-1.59,6.11C144.07,111.13,142.16,107.07,142.16,107.07Z"/><path class="cls-1" d="M143.57,119.49s-4.24-1.45-5.9,2.26C141.38,123.41,143.57,119.49,143.57,119.49Z"/><path class="cls-1" d="M128.7,119.22s-2.81,3.5.11,6.31C131.64,122.61,128.7,119.22,128.7,119.22Z"/><path class="cls-1" d="M121.88,123.24s-3.73,2.49-1.79,6.05C123.65,127.35,121.88,123.24,121.88,123.24Z"/><path class="cls-1" d="M136.58,127.15s-3.34-3-6.31-.23C133,129.9,136.58,127.15,136.58,127.15Z"/><path class="cls-1" d="M133.76,113.45s-2.11,4,1.28,6.18C137.27,116.24,133.76,113.45,133.76,113.45Z"/><path class="cls-1" d="M200.79,145.56s-4.48-.21-5,3.81C199.78,149.93,200.79,145.56,200.79,145.56Z"/><path class="cls-1" d="M196.14,155.2s-2.43-3.77-6-1.88C192,156.92,196.14,155.2,196.14,155.2Z"/><path class="cls-1" d="M184.41,146.58s-4.26,1.4-3.35,5.35C185,151,184.41,146.58,184.41,146.58Z"/><path class="cls-1" d="M186.88,158.83s-.76-4.42-4.81-4.09C182.4,158.78,186.88,158.83,186.88,158.83Z"/><path class="cls-1" d="M177.89,147.89s-4.46.48-4.39,4.53C177.56,152.36,177.89,147.89,177.89,147.89Z"/><path class="cls-1" d="M176.8,159.21s.18-4.48-3.85-5C172.42,158.23,176.8,159.21,176.8,159.21Z"/><path class="cls-1" d="M191.22,144.38s-4.11,1.79-2.83,5.64C192.24,148.74,191.22,144.38,191.22,144.38Z"/><path class="cls-1" d="M162.17,199.54s.73-4.42-3.2-5.44C157.95,198,162.17,199.54,162.17,199.54Z"/><path class="cls-1" d="M153.17,193.71s4-2,2.57-5.77C152,189.4,153.17,193.71,153.17,193.71Z"/><path class="cls-1" d="M163.11,184s-.89-4.39-4.93-3.95C158.62,184.12,163.11,184,163.11,184Z"/><path class="cls-1" d="M150.77,184.1s4.48-.24,4.62-4.3C151.33,179.65,150.77,184.1,150.77,184.1Z"/><path class="cls-1" d="M163.53,177.52s0-4.48-4-4.89C159.12,176.67,163.53,177.52,163.53,177.52Z"/><path class="cls-1" d="M152.13,174.37s4.17,1.66,6-2C154.51,170.57,152.13,174.37,152.13,174.37Z"/><path class="cls-1" d="M164.5,191.06s-1.3-4.29-5.28-3.47C160,191.56,164.5,191.06,164.5,191.06Z"/><path class="cls-1" d="M136.48,189.15s-4.47.29-4.58,4.34C136,193.6,136.48,189.15,136.48,189.15Z"/><path class="cls-1" d="M132,199s-2.83-3.47-6.2-1.2C128.05,201.2,132,199,132,199Z"/><path class="cls-1" d="M120.31,191s-4.08,1.86-2.73,5.69C121.41,195.36,120.31,191,120.31,191Z"/><path class="cls-1" d="M123.16,203s-1.25-4.31-5.23-3.53C118.7,203.47,123.16,203,123.16,203Z"/><path class="cls-1" d="M113.87,192.08s-4.38,1-3.86,5C114,196.56,113.87,192.08,113.87,192.08Z"/><path class="cls-1" d="M113.37,203.89s.67-4.43-3.27-5.4C109.13,202.43,113.37,203.89,113.37,203.89Z"/><path class="cls-1" d="M126.94,188.36s-3.89,2.24-2.19,5.92C128.44,192.59,126.94,188.36,126.94,188.36Z"/><path class="cls-1" d="M74.15,182.69s1.65-4.17-2-6C70.35,180.32,74.15,182.69,74.15,182.69Z"/><path class="cls-1" d="M66.15,174.64s4.35-1.08,3.73-5.09C65.87,170.16,66.15,174.64,66.15,174.64Z"/><path class="cls-1" d="M78.39,167.27s.05-4.48-4-4.9C74,166.41,78.39,167.27,78.39,167.27Z"/><path class="cls-1" d="M65.82,164.73s4.43.71,5.43-3.23C67.32,160.5,65.82,164.73,65.82,164.73Z"/><path class="cls-1" d="M81.15,161s1-4.37-2.87-5.62C77,159.23,81.15,161,81.15,161Z"/><path class="cls-1" d="M69.7,154.53s3.72,2.5,6.28-.65C72.83,151.32,69.7,154.53,69.7,154.53Z"/><path class="cls-1" d="M85.22,156.88s2.45-3.75-.73-6.27C82,153.79,85.22,156.88,85.22,156.88Z"/><path class="cls-1" d="M76.74,146.83s2.62,3.64,6.11,1.58C80.79,144.91,76.74,146.83,76.74,146.83Z"/><path class="cls-1" d="M78.27,174.43s-.37-4.47-4.42-4.5C73.81,174,78.27,174.43,78.27,174.43Z"/><path class="cls-1" d="M26,35.48s-.18,4.48,3.85,5C30.33,36.46,26,35.48,26,35.48Z"/><path class="cls-1" d="M35.42,39.54s-3.39,2.94-1,6.23C37.7,43.4,35.42,39.54,35.42,39.54Z"/><path class="cls-1" d="M27.32,51.86s1.61,4.18,5.52,3.07C31.72,51,27.32,51.86,27.32,51.86Z"/><path class="cls-1" d="M39.47,49.74s-4.37,1-3.84,5C39.66,54.22,39.47,49.74,39.47,49.74Z"/><path class="cls-1" d="M40,58.72s-4.34-1.11-5.7,2.72C38.12,62.8,40,58.72,40,58.72Z"/><path class="cls-1" d="M25.15,45s2.35,3.82,6,2C29.32,43.36,25.15,45,25.15,45Z"/><path class="cls-1" d="M91.32,37.18s3.13-3.21.49-6.29C88.73,33.52,91.32,37.18,91.32,37.18Z"/><path class="cls-1" d="M87.31,28.1s4.48.09,4.93-3.95C88.2,23.71,87.31,28.1,87.31,28.1Z"/><path class="cls-1" d="M101.57,24.37s1.6-4.19-2-6C97.74,22,101.57,24.37,101.57,24.37Z"/><path class="cls-1" d="M91.12,17.81S95,20,97.33,16.66C94,14.36,91.12,17.81,91.12,17.81Z"/><path class="cls-1" d="M106.67,18.66s1.08-4.35-2.75-5.68C102.59,16.81,106.67,18.66,106.67,18.66Z"/><path class="cls-1" d="M98.59,30.93s.81-4.41-3.1-5.5C94.4,29.34,98.59,30.93,98.59,30.93Z"/><path class="cls-1" d="M191.36,40.4s.82-4.41-3.09-5.5C187.17,38.8,191.36,40.4,191.36,40.4Z"/><path class="cls-1" d="M183,35.09s3.77-2.42,1.9-6C181.27,30.94,183,35.09,183,35.09Z"/><path class="cls-1" d="M192.76,24.05s-1-4.37-5-3.83C188.28,24.25,192.76,24.05,192.76,24.05Z"/><path class="cls-1" d="M180.42,24.41s4.47-.35,4.52-4.41C180.88,20,180.42,24.41,180.42,24.41Z"/><path class="cls-1" d="M193.25,17.18s-.26-4.48-4.31-4.61C188.8,16.63,193.25,17.18,193.25,17.18Z"/><path class="cls-1" d="M181.46,15.33s4.37,1,5.64-2.84C183.25,11.21,181.46,15.33,181.46,15.33Z"/><path class="cls-1" d="M193.92,31.16s-1.78-4.11-5.64-2.85C189.55,32.17,193.92,31.16,193.92,31.16Z"/><path class="cls-1" d="M18.3,205.15s1.3-4.29-2.46-5.81C14.31,203.1,18.3,205.15,18.3,205.15Z"/><path class="cls-1" d="M10.15,197.74s4.25-1.44,3.3-5.38C9.5,193.31,10.15,197.74,10.15,197.74Z"/><path class="cls-1" d="M21.25,189.44s-.32-4.47-4.37-4.55C16.79,188.94,21.25,189.44,21.25,189.44Z"/><path class="cls-1" d="M9,187.9s4.47.34,5.14-3.66C10.14,183.57,9,187.9,9,187.9Z"/><path class="cls-1" d="M11.54,177.46s3.92,2.18,6.2-1.17C14.39,174,11.54,177.46,11.54,177.46Z"/><path class="cls-1" d="M17.91,170.18s2.91,3.41,6.22,1.07C21.79,167.93,17.91,170.18,17.91,170.18Z"/><path class="cls-1" d="M21.72,196.58s-.73-4.42-4.78-4.12C17.24,196.5,21.72,196.58,21.72,196.58Z"/><path class="cls-1" d="M8.75,93.95s1.46-9.72,11.18-9.72,18.47,18.47,8.75,22.36S15.09,86.23,31.6,80.34c13.61-4.86,17.87-4.55,29.17-7.78C74.38,68.67,79.24,63.81,85.08,56"/><path class="cls-1" d="M52.42,75.38a112.27,112.27,0,0,1,11.27,25.38c3.89,13.61,5.83,27.22-3.89,38.89s-26.9,11.62-36.95,3.89c-12.64-9.72-12.64-28.2-3.89-36.95s19.45-9.72,26.25-4.86S56.88,121.17,49.1,129c-9.72,9.72-22-1.16-13.61-14.58C40.35,106.59,54,102.7,66.6,99.78A31.73,31.73,0,0,0,85.08,88.11"/><path class="cls-1" d="M76.33,116.31s4.86-5.83,4.86-11.67c0,0,1,15.56,5.83,20.42s4.86-2.92,3.89-10.7,0-19.45,2.92-13.61,5.83,17.5,5.83,17.5-1.94-17.5,0-23.34,5.83-7.78,7.78,1.94,3.89,14.58,6.81,14.58,1-14.58,2.92-16.53"/><path class="cls-1" d="M126.89,80.34s-5.83-3.89-7.78,3.89,0,19.45,5.83,22.36,4.86-20.42,1.94-30.14c0,0,5.83,23.34,11.67,23.34s2.92-26.25,1-40.84-6.81-19.45-7.78-12.64,1,18.47,7.78,34,12.64,15.56,13.61,8.75,1-23.34,0-36-3.89-19.45-6.81-12.64,1,19.45,5.83,32.09,14.58,20.42,14.58-1"/><path class="cls-1" d="M163.83,57s1,15.56,6.81,21.39,7.78-4.86,6.81-14.58a61.66,61.66,0,0,0-3.89-16.53s8.75,15.56,12.64,33.06c3.43,15.45,1,30.14-7.78,41.81s-20.42,9.72-23.34,1.94c-3.82-10.18,8.75-24.31,21.39-26.25s21.34,7.5,20.42,21.39c-1,14.58-11.67,33.06-41.81,27.22s-41.81-10.7-55.42-4.86c-12.16,5.21-8.14,18.21-1,21.39,8.75,3.89,12.64-6.81,3.89-12.64-9.43-6.29-20.46-2-27.22,6.81-5.65,7.34-3.18,19.55-3.18,19.55"/><circle class="cls-1" cx="80.46" cy="99.05" r="1.7"/></svg>